# xmcd CD database file
#
# Track frame offsets:
#	150
#	19162
#	32922
#	46747
#	64812
#	78570
#	92835
#	106080
#	119382
#	136385
#
# Disc length: 2019 seconds
#
# Revision: 5
# Processed by: cddbd v1.5.2PL0 Copyright (c) Steve Scherf et al.
# Submitted via: CDex 1.79
#
DISCID=7f07e10a
DTITLE=Keith Whitley - Wherever You Are Tonight
DYEAR=1995
DGENRE=Country
TTITLE0=I'm Losing You All Over Again
TTITLE1=Daddy Loved Trains
TTITLE2=Tell Me Something I Don't Know
TTITLE3=Blind And Afraid Of The Dark
TTITLE4=Buck
TTITLE5=Light At The End Of The Tunnel
TTITLE6=I'm Not That Easy To Forget
TTITLE7=Just How Bad Do You Wanna Feel Good
TTITLE8=Leave Well Enough Alone
TTITLE9=Wherever You Are Tonight
EXTD=YEAR: 1995
EXTT0=Keith Whitley-Bill Caswell
EXTT1=Keith Whitley-Don Cok
EXTT2=Keith Whitley-Gary Nicholson-Don Cook
EXTT3=Keith Whitley-Max D. Barnes
EXTT4=Keith Whitley
EXTT5=Keith Whitley-Don Cook
EXTT6=Keith Whitley-Curly Pulman-Don Cook
EXTT7=Keith Whitley-Bilol Caswell
EXTT8=Keith Whitley-Bill Caswell
EXTT9=Keith Whitley-Gary Nicholson Don Cook
PLAYORDER=
